<svg width="183" height="36" viewBox="0 0 183 36" fill="none" xmlns="http://www.w3.org/2000/svg">
<g clip-path="url(#clip0_224_39)">
<path d="M0 0H183V31.1351C183 33.8219 180.822 36 178.135 36H4.32433C1.93607 36 0 34.0639 0 31.6757V0Z" fill="white"/>
<rect x="107.405" y="0.405405" width="75.1892" height="39.1892" fill="url(#paint0_linear_224_39)" stroke="black" stroke-width="0.810811"/>
<rect x="0.27027" y="0.27027" width="54.4595" height="39.4595" fill="url(#paint1_linear_224_39)" stroke="black" stroke-width="0.540541"/>
<rect x="54.4054" y="0.405405" width="53.1892" height="39.1892" fill="url(#paint2_linear_224_39)" stroke="black" stroke-width="0.810811"/>
<rect x="13.4054" y="14.4054" width="26.7568" height="6.21622" fill="url(#paint3_linear_224_39)" stroke="black" stroke-width="0.810811"/>
<rect x="70.4054" y="7.40541" width="20.2703" height="20.2703" fill="url(#paint4_linear_224_39)" stroke="black" stroke-width="0.810811"/>
<rect x="75.8107" y="12.8112" width="10" height="10" fill="url(#paint5_linear_224_39)" stroke="black" stroke-width="0.810811"/>
<mask id="path-9-outside-1_224_39" maskUnits="userSpaceOnUse" x="135" y="6" width="24" height="25" fill="black">
<rect fill="white" x="135" y="6" width="24" height="25"/>
<path d="M147.144 14.6215L150.526 7.519H157.134L150.973 18.6823L157.288 30H150.618L147.144 22.774L143.67 30H137L143.315 18.6823L137.154 7.519H143.763L147.144 14.6215Z"/>
</mask>
<path d="M147.144 14.6215L150.526 7.519H157.134L150.973 18.6823L157.288 30H150.618L147.144 22.774L143.67 30H137L143.315 18.6823L137.154 7.519H143.763L147.144 14.6215Z" fill="url(#paint6_linear_224_39)"/>
<path d="M147.144 14.6215L146.412 14.97L147.144 16.5077L147.876 14.97L147.144 14.6215ZM150.526 7.519V6.70819H150.014L149.794 7.17047L150.526 7.519ZM157.134 7.519L157.844 7.91076L158.508 6.70819H157.134V7.519ZM150.973 18.6823L150.264 18.2905L150.046 18.6845L150.265 19.0774L150.973 18.6823ZM157.288 30V30.8108H158.669L157.997 29.6049L157.288 30ZM150.618 30L149.888 30.3513L150.108 30.8108H150.618V30ZM147.144 22.774L147.875 22.4226L147.144 20.9027L146.413 22.4226L147.144 22.774ZM143.67 30V30.8108H144.18L144.401 30.3513L143.67 30ZM137 30L136.292 29.6049L135.619 30.8108H137V30ZM143.315 18.6823L144.023 19.0774L144.242 18.6845L144.025 18.2905L143.315 18.6823ZM137.154 7.519V6.70819H135.781L136.445 7.91076L137.154 7.519ZM143.763 7.519L144.495 7.17047L144.275 6.70819H143.763V7.519ZM147.144 14.6215L147.876 14.97L151.258 7.86754L150.526 7.519L149.794 7.17047L146.412 14.273L147.144 14.6215ZM150.526 7.519V8.32981H157.134V7.519V6.70819H150.526V7.519ZM157.134 7.519L156.424 7.12724L150.264 18.2905L150.973 18.6823L151.683 19.0741L157.844 7.91076L157.134 7.519ZM150.973 18.6823L150.265 19.0774L156.58 30.3951L157.288 30L157.997 29.6049L151.681 18.2872L150.973 18.6823ZM157.288 30V29.1892H150.618V30V30.8108H157.288V30ZM150.618 30L151.349 29.6487L147.875 22.4226L147.144 22.774L146.413 23.1253L149.888 30.3513L150.618 30ZM147.144 22.774L146.413 22.4226L142.939 29.6487L143.67 30L144.401 30.3513L147.875 23.1253L147.144 22.774ZM143.67 30V29.1892H137V30V30.8108H143.67V30ZM137 30L137.708 30.3951L144.023 19.0774L143.315 18.6823L142.607 18.2872L136.292 29.6049L137 30ZM143.315 18.6823L144.025 18.2905L137.864 7.12724L137.154 7.519L136.445 7.91076L142.605 19.0741L143.315 18.6823ZM137.154 7.519V8.32981H143.763V7.519V6.70819H137.154V7.519ZM143.763 7.519L143.031 7.86754L146.412 14.97L147.144 14.6215L147.876 14.273L144.495 7.17047L143.763 7.519Z" fill="black" mask="url(#path-9-outside-1_224_39)"/>
</g>
<path d="M182.595 0.405273V31.1348C182.595 33.5977 180.598 35.5947 178.135 35.5947H4.32422C2.15994 35.5947 0.405331 33.8401 0.405273 31.6758V0.405273H182.595Z" stroke="black" stroke-width="0.810811"/>
<defs>
<linearGradient id="paint0_linear_224_39" x1="145" y1="0" x2="145" y2="40" gradientUnits="userSpaceOnUse">
<stop offset="0.192308" stop-color="#DABBB9"/>
<stop offset="0.418269" stop-color="#BE4E42"/>
<stop offset="1" stop-color="#E58F89"/>
</linearGradient>
<linearGradient id="paint1_linear_224_39" x1="27.5" y1="0" x2="27.5" y2="40" gradientUnits="userSpaceOnUse">
<stop offset="0.192308" stop-color="#F5E9F3"/>
<stop offset="0.418269" stop-color="#D2BAD0"/>
<stop offset="1" stop-color="#D8C5E1"/>
</linearGradient>
<linearGradient id="paint2_linear_224_39" x1="81" y1="0" x2="81" y2="40" gradientUnits="userSpaceOnUse">
<stop offset="0.192308" stop-color="#F5E9F3"/>
<stop offset="0.418269" stop-color="#D2BAD0"/>
<stop offset="1" stop-color="#D8C5E1"/>
</linearGradient>
<linearGradient id="paint3_linear_224_39" x1="26.7838" y1="14" x2="26.7838" y2="21.027" gradientUnits="userSpaceOnUse">
<stop stop-color="#F5E9F3"/>
<stop offset="1" stop-color="#C6B5C7"/>
</linearGradient>
<linearGradient id="paint4_linear_224_39" x1="80.5405" y1="7" x2="80.5405" y2="28.0811" gradientUnits="userSpaceOnUse">
<stop stop-color="#FFF8FF"/>
<stop offset="1" stop-color="#D2BDD0"/>
</linearGradient>
<linearGradient id="paint5_linear_224_39" x1="80.8107" y1="12.4058" x2="80.8107" y2="23.2166" gradientUnits="userSpaceOnUse">
<stop stop-color="#D6BFD4"/>
<stop offset="1" stop-color="#D4BED6"/>
</linearGradient>
<linearGradient id="paint6_linear_224_39" x1="147.5" y1="6.36046" x2="147.5" y2="30.9651" gradientUnits="userSpaceOnUse">
<stop stop-color="#F5E9F3"/>
<stop offset="1" stop-color="#D7C3DF"/>
</linearGradient>
<clipPath id="clip0_224_39">
<path d="M0 0H183V31.1351C183 33.8219 180.822 36 178.135 36H4.32433C1.93607 36 0 34.0639 0 31.6757V0Z" fill="white"/>
</clipPath>
</defs>
</svg>
